HIERARCHY
ROOT bip01_pelvis
{
	OFFSET -0.141780 111.560104 -53.453648
	CHANNELS 6 Xposition Yposition Zposition Xrotation Yrotation Zrotation
	JOINT bip01_l_thigh
	{
		OFFSET -12.581326 0.000023 0.838757
		CHANNELS 3 Xrotation Yrotation Zrotation
		JOINT bip01_l_calf
		{
			OFFSET -5.405050 -43.060066 12.568863
			CHANNELS 3 Xrotation Yrotation Zrotation
			JOINT bip01_l_foot
			{
				OFFSET -6.378141 -25.639313 -28.000755
				CHANNELS 3 Xrotation Yrotation Zrotation
				JOINT bip01_l_toe0
				{
					OFFSET -1.312191 -43.345943 -5.410645
					CHANNELS 3 Xrotation Yrotation Zrotation
					End Site
					{
						OFFSET 0.668312 -0.011212 0.027710
					}
				}
			}
		}
	}
	JOINT bip01_r_thigh
	{
		OFFSET 12.581315 -0.000053 -0.838764
		CHANNELS 3 Xrotation Yrotation Zrotation
		JOINT bip01_r_calf
		{
			OFFSET 7.025425 -43.060097 11.740181
			CHANNELS 3 Xrotation Yrotation Zrotation
			JOINT bip01_r_foot
			{
				OFFSET 2.604660 -25.639347 -28.599602
				CHANNELS 3 Xrotation Yrotation Zrotation
				JOINT bip01_r_toe0
				{
					OFFSET 0.582125 -43.345810 -5.536972
					CHANNELS 3 Xrotation Yrotation Zrotation
					End Site
					{
						OFFSET 0.658720 0.011207 -0.116180
					}
				}
			}
		}
	}
	JOINT bip01_spine
	{
		OFFSET 1.130847 -10.257637 16.963192
		CHANNELS 3 Xrotation Yrotation Zrotation
		JOINT bip01_spine1
		{
			OFFSET 2.125925 -0.408882 31.891911
			CHANNELS 3 Xrotation Yrotation Zrotation
			JOINT bip01_spine2
			{
				OFFSET 3.104555 -1.436646 46.949230
				CHANNELS 3 Xrotation Yrotation Zrotation
				JOINT bip01_neck
				{
					OFFSET 1.831697 12.621635 29.209831
					CHANNELS 3 Xrotation Yrotation Zrotation
					JOINT bip01_head
					{
						OFFSET 0.933028 14.642593 15.308128
						CHANNELS 3 Xrotation Yrotation Zrotation
						JOINT bip01_ponytail1
						{
							OFFSET 12.881245 30.917107 3.869919
							CHANNELS 3 Xrotation Yrotation Zrotation
							End Site
							{
								OFFSET -0.556711 0.315430 0.195229
							}
						}
						JOINT bip01_ponytail2
						{
							OFFSET -12.308470 31.163292 5.588448
							CHANNELS 3 Xrotation Yrotation Zrotation
							End Site
							{
								OFFSET -0.577699 -0.315430 -0.119598
							}
						}
						JOINT bone01
						{
							OFFSET -0.035753 10.693596 0.910164
							CHANNELS 3 Xrotation Yrotation Zrotation
							End Site
							{
								OFFSET -0.667642 0.000000 0.042305
							}
						}
						JOINT bone03
						{
							OFFSET -2.859410 10.011330 9.974838
							CHANNELS 3 Xrotation Yrotation Zrotation
							End Site
							{
								OFFSET 0.042301 0.000000 0.667641
							}
						}
						JOINT bone05
						{
							OFFSET 4.144515 10.011345 9.531006
							CHANNELS 3 Xrotation Yrotation Zrotation
							End Site
							{
								OFFSET 0.042301 0.000000 0.667641
							}
						}
					}
					JOINT bip01_l_clavicle
					{
						OFFSET -6.817371 -1.737137 -4.124603
						CHANNELS 3 Xrotation Yrotation Zrotation
						JOINT bip01_l_upperarm
						{
							OFFSET -13.915021 0.119522 7.203735
							CHANNELS 3 Xrotation Yrotation Zrotation
							JOINT bip01_l_forearm
							{
								OFFSET 0.900768 -49.360191 -24.691143
								CHANNELS 3 Xrotation Yrotation Zrotation
								JOINT bip01_l_hand
								{
									OFFSET 5.453267 -54.192162 0.261513
									CHANNELS 3 Xrotation Yrotation Zrotation
									End Site
									{
										OFFSET -0.048247 0.019447 -0.666954
									}
								}
							}
						}
					}
					JOINT bip01_r_clavicle
					{
						OFFSET 6.291911 -1.668388 -4.989365
						CHANNELS 3 Xrotation Yrotation Zrotation
						JOINT bip01_r_upperarm
						{
							OFFSET 14.738678 0.269737 5.313599
							CHANNELS 3 Xrotation Yrotation Zrotation
							JOINT bip01_r_forearm
							{
								OFFSET -4.170362 -49.360199 -24.353104
								CHANNELS 3 Xrotation Yrotation Zrotation
								JOINT bip01_r_hand
								{
									OFFSET -5.370342 -54.192158 0.983074
									CHANNELS 3 Xrotation Yrotation Zrotation
									End Site
									{
										OFFSET 0.040714 -0.019448 0.667458
									}
								}
							}
						}
					}
				}
			}
		}
	}
	JOINT bip01_tail
	{
		OFFSET -1.140240 5.694984 -17.420544
		CHANNELS 3 Xrotation Yrotation Zrotation
		JOINT bip01_tail1
		{
			OFFSET -0.799711 -16.655739 -11.995483
			CHANNELS 3 Xrotation Yrotation Zrotation
			JOINT bip01_tail2
			{
				OFFSET -0.560408 -49.655807 -8.404999
				CHANNELS 3 Xrotation Yrotation Zrotation
				End Site
				{
					OFFSET -0.667499 0.000004 0.044495
				}
			}
		}
	}
}
MOTION
Frames: 12
Frame Time: 0.041667
-0.470264 112.171936 -52.133762 -3.398603 -24.099624 0.020950 6.511962 11.305594 -0.975221 10.844331 -1.726275 -0.805714 15.463506 -0.614321 -15.036303 33.502040 10.726001 9.161835 -5.869219 38.619375 -5.453697 -19.342578 -3.011163 0.352958 -14.631756 -17.060809 8.961533 41.621394 -2.210197 -12.067207 0.014648 22.896215 0.283228 -3.988009 -2.217633 -2.372215 27.294995 0.708876 1.020368 -14.401435 -9.232070 11.455964 0.749290 10.479310 -13.898906 -21.554421 5.152369 -14.086865 -4.964441 1.759115 16.347653 3.978995 -0.127161 -0.420923 0.004075 0.003788 -0.004772 -0.002730 0.000245 0.003160 11.454221 -37.875878 -7.235924 -51.620015 36.018565 32.256180 -7.507244 -0.828100 1.173453 27.998586 2.181524 -2.880356 29.109785 27.617494 -31.219029 -22.972894 -37.572474 11.316095 -54.803744 5.301050 1.054898 151.173301 -9.301403 -10.751890 90.333958 3.712714 -25.877475 14.034897 -0.004991 -2.770852 -15.954231 1.780286 -1.638673 
-1.392329 112.614990 -52.133774 -1.886968 -17.598256 -0.608502 3.294460 4.368135 -0.146547 14.637915 -2.362497 -1.008904 17.537897 -0.690680 -7.795864 40.049675 10.851198 7.146614 -6.574751 31.516040 -5.096007 -15.434197 -2.396119 0.364000 -16.979333 -17.438808 11.020463 39.317789 -2.562179 -13.553480 1.038334 16.065259 -0.098276 -5.670093 -1.597669 -1.932506 24.792970 -0.430824 0.014910 -15.085239 -6.468315 8.389367 3.706360 7.189701 -9.224316 -18.708564 6.267994 -14.807816 -5.986461 1.304911 16.429971 3.847474 -0.125315 -0.409202 0.004075 0.003789 -0.004770 -0.002729 0.000245 0.003161 13.746132 -41.833836 -3.297668 -43.574452 40.295206 30.535652 -12.771243 -1.498301 1.928229 27.438533 1.809358 -4.609969 23.956525 22.393545 -22.447782 -35.413923 -29.093235 5.093508 -46.960805 4.643325 0.597298 144.253991 -8.607647 -6.427613 92.623704 1.480363 -19.395996 11.562377 0.037001 -1.547651 -22.639885 1.970245 -2.038193 
-2.525151 113.131912 -52.133766 0.014609 -10.568405 -1.267768 0.179025 -3.150448 -0.064808 18.427956 -3.010198 -1.169485 19.742961 -0.420271 -0.666060 53.142543 10.421348 3.139571 -9.371410 23.662924 -3.638140 -10.576673 -1.632645 0.319204 -16.187842 -16.568977 12.269135 34.523256 -2.354326 -13.864618 2.202784 8.589925 -0.254403 -7.681148 -0.878497 -1.400894 21.991966 -1.587312 -1.194541 -15.652634 -3.439291 5.136637 7.257904 4.038166 -3.866557 -15.575391 7.566153 -15.676536 -7.127398 0.873412 16.476098 3.473826 -0.129898 -0.383218 0.004081 0.003788 -0.004772 -0.002728 0.000244 0.003161 16.977695 -45.820823 1.520832 -35.062861 44.329277 28.218387 -17.087962 -2.098471 2.500056 26.359192 1.637274 -6.249119 20.038278 16.109368 -13.944530 -46.493586 -19.741673 2.634887 -38.850427 3.903177 0.223194 138.163348 -8.385572 -1.882771 95.896805 -0.196456 -12.405720 8.446624 0.007668 -0.145267 -29.792527 2.303134 -2.637606 
-3.552595 113.624207 -52.133766 2.146871 -3.433159 -1.954190 -4.195417 -10.695920 -0.125153 20.686355 -3.400655 -1.244692 18.290056 -0.058111 3.090445 59.658041 9.874630 1.202056 -13.692216 15.299610 -1.735313 -5.433765 -0.831422 0.201491 -11.664329 -13.832876 11.484307 27.013036 -1.727408 -12.123056 3.260855 1.035131 -0.106417 -9.535265 -0.231698 -0.885929 19.305752 -2.659531 -2.382602 -16.050982 -0.324498 1.859162 10.809452 1.372975 1.801169 -12.301390 8.893823 -16.660254 -8.356853 0.455936 16.496450 2.903346 -0.129352 -0.342379 0.004077 0.003787 -0.004772 -0.002728 0.000244 0.003161 21.170887 -49.630374 7.165022 -26.352886 48.045634 25.086793 -20.771155 -2.643862 2.951642 24.907132 1.660635 -7.674102 17.737646 9.569300 -6.605864 -55.629015 -11.405551 3.550466 -31.314348 3.173562 -0.027466 130.369460 -8.799089 2.317495 99.311258 -0.987842 -5.201277 5.653543 -0.079243 1.167767 -36.710279 2.648889 -3.083771 
-4.316591 114.079590 -52.133766 4.312930 3.407183 -2.663328 -11.044436 -17.706958 -0.950582 22.295020 -3.680386 -1.288840 12.144385 0.341939 3.456003 60.963564 9.171333 1.183116 -14.890442 7.609647 -1.993539 -3.672193 -0.559853 0.144712 -9.158637 -12.308039 11.918442 22.125686 -1.571768 -12.021381 3.973869 -6.035500 0.271868 -10.744841 0.171429 -0.503798 17.167525 -3.574022 -3.291679 -16.267069 2.686026 -1.279555 13.702722 -0.733129 7.289059 -9.052275 10.121312 -17.698524 -9.642684 0.050611 16.491820 2.180732 -0.135295 -0.289867 0.004072 0.003789 -0.004769 -0.002730 0.000245 0.003163 26.203560 -53.069518 13.443358 -17.850706 51.333858 21.113459 -23.978755 -3.141933 3.316045 23.120711 1.828995 -8.735466 16.836811 3.732563 -1.102056 -61.960164 -5.473874 6.345059 -25.174993 2.558382 -0.159392 118.355690 -10.221804 5.499554 101.927828 -1.041933 1.873255 4.159909 -0.161030 2.116523 -42.688030 2.795488 -3.070782 
-4.580038 114.571884 -52.133770 6.274481 9.550165 -3.261617 -20.050085 -23.550349 -3.496301 24.503051 -4.066044 -1.336597 3.720550 1.305039 2.765045 64.529906 7.254731 1.217913 -15.334482 0.731685 -2.671437 -2.903432 -0.441918 0.117325 -6.262664 -10.773173 12.376741 17.241266 -1.413708 -11.887679 4.049378 -12.075780 0.656393 -10.807378 0.185834 -0.384953 16.003905 -4.294921 -3.649668 -16.322725 5.413214 -4.128228 15.261622 -2.455507 12.031143 -5.990504 11.134380 -18.715147 -10.960213 -0.348584 16.473028 1.349548 -0.138275 -0.231431 0.004079 0.003789 -0.004772 -0.002722 0.000245 0.003161 31.786611 -56.010765 20.030226 -10.248487 54.155494 16.560443 -26.734590 -3.585763 3.606691 20.924950 2.052080 -9.259004 16.800857 -0.652769 1.478451 -63.139348 -2.512128 9.560623 -21.111048 2.144675 -0.210140 95.492274 -13.397378 5.764453 102.872539 -0.943357 8.576275 4.929056 -0.127864 2.433076 -47.013917 2.480662 -2.346252 
-4.553696 114.941109 -52.133770 7.755831 14.608245 -3.715152 -30.087212 -27.584955 -7.378149 26.325786 -4.385493 -1.364782 -5.527284 3.100543 1.486448 69.378753 4.647978 1.454767 -14.837758 -4.963288 -3.354369 -2.911525 -0.443159 0.117622 -3.186430 -9.240157 12.848107 12.354829 -1.252135 -11.735637 3.018753 -16.382477 0.687572 -9.089175 -0.481530 -0.739240 16.151241 -4.901186 -3.087814 -16.264217 7.667704 -6.524174 14.864126 -3.979335 15.422113 -3.296187 11.824363 -19.611563 -12.275601 -0.748455 16.446080 0.453536 -0.145324 -0.168039 0.004077 0.003788 -0.004772 -0.002731 0.000245 0.003161 37.390522 -58.440676 26.363775 -4.663772 56.657317 12.238811 -28.783148 -3.924537 3.808847 18.160491 2.166456 -9.185896 17.080792 -3.413503 1.633787 -61.067232 -1.140874 12.016241 -19.027934 1.931438 -0.224736 66.055716 -16.278197 2.869392 101.373162 -1.690965 14.855863 9.472491 0.087178 1.761350 -49.745637 1.392035 -0.444908 
-4.316591 115.174957 -52.133770 8.450733 18.190884 -3.926205 -39.469242 -29.639131 -11.286863 26.099037 -4.345716 -1.361830 -14.169600 5.703352 0.202895 74.223031 2.066685 1.914454 -13.124670 -9.119849 -3.581557 -3.513260 -0.535441 0.139178 -0.068758 -7.723558 13.220638 7.471528 -1.083371 -11.581310 1.004652 -18.645074 0.210128 -5.918729 -1.749873 -1.438628 17.338128 -5.424567 -1.752949 -16.163221 9.268680 -8.288303 12.840986 -5.237572 17.213152 -1.162192 12.097553 -20.274764 -13.561636 -1.151091 16.415842 -0.465299 -0.153411 -0.103247 0.004079 0.003788 -0.004772 -0.002727 0.000244 0.003161 42.306871 -60.452556 31.726341 -1.838589 58.923461 9.163097 -28.899657 -3.944021 3.819983 14.356344 1.978208 -8.527898 17.428356 -4.535258 1.001525 -59.803729 -0.213895 12.882695 -18.635232 1.891183 -0.226621 44.803172 -17.333132 1.166808 98.097062 -3.824233 20.184037 17.140553 0.301617 0.252209 -51.291142 -0.364683 2.413468 
-3.974110 115.298035 -52.133770 8.104790 20.557645 -3.819796 -46.553043 -30.659913 -14.114612 24.895932 -4.134829 -1.343534 -20.838822 8.701314 -0.662627 77.780603 0.204690 2.389007 -9.995289 -11.907422 -3.296130 -4.596047 -0.702057 0.175531 3.071973 -6.282023 13.517236 2.595520 -0.909444 -11.448255 -1.357799 -19.531302 -0.547185 -2.272824 -3.201749 -2.129331 19.089158 -5.752001 -0.157551 -16.074147 10.276861 -9.482976 9.974856 -6.185313 17.771713 0.227669 11.870427 -20.604557 -14.791517 -1.567117 16.389568 -1.361544 -0.162512 -0.040079 0.004079 0.003789 -0.004770 -0.002727 0.000244 0.003160 46.361634 -62.212689 36.016800 -2.364892 60.853632 8.376424 -25.596771 -3.400807 3.489254 9.015206 1.231959 -7.317137 17.870862 -2.674863 0.273286 -57.215566 -0.637746 10.850982 -25.617564 2.603181 -0.152095 49.421022 -18.166502 5.680043 94.298807 -6.866648 24.229580 25.683345 0.276575 -1.553990 -51.498745 -2.311857 5.519654 
-3.552597 115.088806 -52.133762 6.845704 22.191570 -3.403128 -50.100657 -31.939030 -15.420817 19.680826 -3.226453 -1.213108 -24.253450 11.338789 -1.018789 79.087437 -0.467905 2.589477 -5.739714 -13.770730 -2.592105 -5.909307 -0.905029 0.215386 6.185029 -4.972495 13.731321 -2.278659 -0.723046 -11.343302 -3.422076 -20.019288 -1.295003 0.897172 -4.365332 -2.536306 20.923661 -5.813785 1.160038 -16.007528 10.888591 -10.321323 7.110993 -6.925584 17.728234 0.618128 10.804874 -20.405940 -15.932974 -2.002575 16.377310 -2.195442 -0.171798 0.022592 0.004077 0.003789 -0.004769 -0.002726 0.000245 0.003161 43.423146 -59.475887 32.948443 2.330913 61.781588 0.946250 -32.050226 -4.479224 4.105992 28.896778 -1.062810 -4.330848 18.412882 0.796340 -0.920978 -56.679157 -2.683946 7.315018 -26.932713 2.735951 -0.128375 59.335028 -16.840210 12.641164 91.035343 -9.937708 27.072935 32.826029 0.027247 -3.080722 -50.313755 -3.939819 8.196900 
-3.104737 114.658035 -52.133762 4.945051 23.093204 -2.773669 -39.297142 -37.071757 -10.382897 4.004761 -0.619102 -0.335247 -22.066499 12.865135 -1.870736 74.678495 -0.727548 3.421295 -0.582474 -14.647033 -1.544804 -7.526866 -1.156211 0.258073 9.324201 -3.823640 13.867893 -7.120645 -0.525476 -11.282834 -4.547134 -20.615975 -1.757761 2.660486 -4.727319 -2.477391 22.360265 -5.593399 1.676042 -15.969732 11.154151 -10.824099 5.069841 -7.524026 17.466636 0.064558 8.863674 -19.703243 -16.954015 -2.459684 16.378597 -3.662957 0.138367 0.315060 0.004078 0.003789 -0.004769 -0.002726 0.000244 0.003163 40.178557 -56.629385 29.516294 5.881347 61.630218 -4.906567 -33.794786 -4.782107 4.251637 46.087726 -1.745017 0.425590 18.338310 6.665633 0.677780 -53.590146 -6.691770 1.250435 -26.619984 2.704430 -0.134288 54.920643 -14.615191 10.332581 89.231961 -12.074920 28.494195 36.331965 -0.184340 -3.791939 -47.760637 -4.768614 9.728407 
-2.525149 114.054970 -52.133762 2.705816 23.261294 -2.026818 -27.268748 -40.770851 -3.468797 -14.605637 2.020123 1.564041 -12.951383 13.312207 -4.210284 57.230165 -0.721331 3.932269 -0.144258 -15.613896 -1.294109 -1.215401 -0.184344 0.051658 9.996854 -3.012566 14.269001 -6.431653 -1.059857 -12.280460 -4.526842 -21.742227 -1.831617 2.708962 -3.925687 -1.795827 23.588830 -5.049582 1.011045 -15.969500 11.121345 -11.014729 3.769264 -8.258785 17.196328 -1.123331 6.397582 -18.727795 -17.832014 -2.949641 16.409133 -3.662003 0.135516 0.319776 0.004080 0.003788 -0.004770 -0.002726 0.000244 0.003161 36.828749 -53.637991 25.890725 8.464688 60.675480 -8.550718 -31.923778 -4.457447 4.095079 60.750332 -0.073655 5.732925 17.851089 12.715671 1.906976 -51.150583 -12.055829 -4.420625 -23.808086 2.419664 -0.179737 49.268504 -12.271770 7.852411 88.914460 -12.979617 28.426192 35.141894 -0.164549 -3.408916 -42.385961 -4.518386 9.673192 
